<svg xmlns="http://www.w3.org/2000/svg" version="1.1" xmlnsXlink="http://www.w3.org/1999/xlink" xmlnsSvgjs="http://svgjs.dev/svgjs" width="1000" height="237" viewBox="0 0 1000 237"><g transform="matrix(1,0,0,1,-0.606049951123282,-0.4322488269062035)"><svg viewBox="0 0 396 94" data-background-color="#8dbdff" preserveAspectRatio="xMidYMid meet" height="237" width="1000" xmlns="http://www.w3.org/2000/svg" xmlnsXlink="http://www.w3.org/1999/xlink"><defs></defs><g id="tight-bounds" transform="matrix(1,0,0,1,0.23999578064481852,0.1714404629923365)"><svg viewBox="0 0 395.5199999999999 93.65711907401536" height="93.65711907401536" width="395.5199999999999"><g><svg viewBox="0 0 583.4391070488089 138.15540534311157" height="93.65711907401536" width="395.5199999999999"><g transform="matrix(1,0,0,1,187.9191070488088,19.093836773179675)"><svg viewBox="0 0 395.52000000000004 99.96773179675222" height="99.96773179675222" width="395.52000000000004"><g><svg viewBox="0 0 395.52000000000004 99.96773179675222" height="99.96773179675222" width="395.52000000000004"><g><svg viewBox="0 0 395.52000000000004 99.96773179675222" height="99.96773179675222" width="395.52000000000004"><g transform="matrix(1,0,0,1,0,0)"><svg width="395.52000000000004" viewBox="3.6500000953674316 -36.20000076293945 190.89999389648438 45.25" height="99.96773179675222" data-palette-color="#ffffff"><svg></svg><g class="undefined-text-0" data-fill-palette-color="primary" id="text-0"><path d="M8.8 0h-5.15v-33.7h5.15zM27.95-33.7l-12.35 17 13.1 16.7h-6.5l-12.75-16.65 12.25-17.05zM36.9-14.5h12.25v-0.9c-0.067-1.9-0.583-3.41-1.55-4.53-0.967-1.113-2.35-1.67-4.15-1.67v0c-1.667 0-3.1 0.607-4.3 1.82-1.2 1.22-1.95 2.98-2.25 5.28zM52.3-5.75v0 4.4c-1.867 1.067-4.333 1.6-7.4 1.6v0c-3.933 0-7.067-1.183-9.4-3.55-2.333-2.367-3.5-5.467-3.5-9.3v0c0-4.067 1.067-7.26 3.2-9.58 2.133-2.313 4.85-3.47 8.15-3.47v0c3.233 0 5.8 1.007 7.7 3.02 1.9 2.02 2.85 4.93 2.85 8.73v0c0 1.033-0.1 2.117-0.3 3.25v0h-16.65c0.333 2.2 1.267 3.883 2.8 5.05 1.533 1.167 3.467 1.75 5.8 1.75v0c2.7 0 4.95-0.633 6.75-1.9zM59.65-25.35h4.9v4.35c1.5-3.133 4.133-4.7 7.9-4.7v0c2.5 0 4.483 0.767 5.95 2.3 1.467 1.533 2.2 3.617 2.2 6.25v0 17.15h-4.9v-16c0-1.767-0.44-3.117-1.32-4.05-0.887-0.933-2.063-1.4-3.53-1.4v0c-1.733 0-3.217 0.673-4.45 2.02-1.233 1.353-1.85 3.247-1.85 5.68v0 13.75h-4.9zM86.35-25.35h17.65v3.5l-12.45 17.7h13.1v4.15h-18.75v-3.75l12.3-17.5h-11.85zM115.4 0h-4.95v-25.35h4.95zM110.72-30.93c-0.58-0.58-0.87-1.303-0.87-2.17 0-0.867 0.29-1.6 0.87-2.2 0.587-0.6 1.313-0.9 2.18-0.9 0.867 0 1.6 0.3 2.2 0.9 0.6 0.6 0.9 1.333 0.9 2.2v0c0 0.833-0.3 1.55-0.9 2.15-0.6 0.6-1.333 0.9-2.2 0.9-0.867 0-1.593-0.293-2.18-0.88zM126-14.5h12.25v-0.9c-0.067-1.9-0.583-3.41-1.55-4.53-0.967-1.113-2.35-1.67-4.15-1.67v0c-1.667 0-3.1 0.607-4.3 1.82-1.2 1.22-1.95 2.98-2.25 5.28zM141.4-5.75v0 4.4c-1.867 1.067-4.333 1.6-7.4 1.6v0c-3.933 0-7.067-1.183-9.4-3.55-2.333-2.367-3.5-5.467-3.5-9.3v0c0-4.067 1.067-7.26 3.2-9.58 2.133-2.313 4.85-3.47 8.15-3.47v0c3.233 0 5.8 1.007 7.7 3.02 1.9 2.02 2.85 4.93 2.85 8.73v0c0 1.033-0.1 2.117-0.3 3.25v0h-16.65c0.333 2.2 1.267 3.883 2.8 5.05 1.533 1.167 3.467 1.75 5.8 1.75v0c2.7 0 4.95-0.633 6.75-1.9zM168.05-33.7v4.3h-13.95v11.05h12.25v4.3h-12.25v14.05h-5.15v-33.7zM180.45-0.55v0l-10.1-24.8h5.45l3.15 8.25 3.95 10.7c0.3-1 1.5-4.567 3.6-10.7v0l2.85-8.25h5.2l-9.15 24.65c-2.433 6.5-6.15 9.75-11.15 9.75v0c-0.9 0-1.667-0.083-2.3-0.25v0-4.2c0.533 0.133 1.1 0.2 1.7 0.2v0c3.233 0 5.5-1.783 6.8-5.35z" data-fill-palette-color="primary" fill="#ffffff" opacity="1"></path></g></svg></g></svg></g></svg></g></svg></g><g><svg viewBox="0 0 165.78648120658775 138.15540534311157" height="138.15540534311157" width="165.78648120658775"><g><svg xmlns="http://www.w3.org/2000/svg" xmlnsXlink="http://www.w3.org/1999/xlink" version="1.1" x="0" y="0" viewBox="1.7999999523162842 6 97.19999694824219 81" enable-background="new 0 0 100 100" xml:space="preserve" height="138.15540534311157" width="165.78648120658775" class="icon-icon-0" data-fill-palette-color="accent" id="icon-0"><g fill="#010c80" data-fill-palette-color="accent"><polygon points="9.9,87 99,87 99,14.1 50.4,14.1 50.4,22.2 90.9,22.2 90.9,78.899 18,78.899 18,54.601 9.9,54.601  " fill="#010c80" data-fill-palette-color="accent"></polygon><polygon points="34.2,14.1 26.1,14.1 26.1,6 18,6 9.9,6 9.9,22.2 9.9,30.3 1.8,30.3 1.8,46.5 18,46.5 18,38.4 18,30.3 18,22.2    26.1,22.2 34.2,22.2 34.2,38.4 26.1,38.4 26.1,54.601 34.2,54.601 42.3,54.601 42.3,38.4 42.3,22.2 42.3,14.1  " fill="#010c80" data-fill-palette-color="accent"></polygon></g></svg></g></svg></g></svg></g></svg><rect width="395.5199999999999" height="93.65711907401536" fill="none" stroke="none" visibility="hidden"></rect></g></svg></g></svg>